<svg width="200" height="200" viewBox="0 0 200 200" fill="none" xmlns="http://www.w3.org/2000/svg">
<g clip-path="url(#clip0_1237_10914)">
<path d="M173.7 66.4112C177.253 75.587 176.62 86.1148 171.002 95.2297C166.017 103.317 158.041 108.777 149.14 111.096C149.722 110.129 150.211 109.165 150.584 108.218C156.953 92.026 151.036 87.0851 136.355 79.7873C113.155 68.2546 106.748 82.8125 105.494 90.5553C105.474 90.6765 105.456 90.7983 105.437 90.9204C101.383 81.4896 101.834 70.4712 107.681 60.984C111.827 54.2576 118.041 49.3483 125.136 46.5515C120.041 60.3284 125.807 62.8902 143.959 69.9851C159.722 76.146 169.344 73.2582 173.7 66.4112Z" fill="black"/>
<path d="M173.7 66.4112C177.253 75.587 176.62 86.1148 171.002 95.2297C166.017 103.317 158.041 108.777 149.14 111.096C149.722 110.129 150.211 109.165 150.584 108.218C156.953 92.026 151.036 87.0851 136.355 79.7873C113.155 68.2546 106.748 82.8125 105.494 90.5553C105.474 90.6765 105.456 90.7983 105.437 90.9204C101.383 81.4896 101.834 70.4712 107.681 60.984C111.827 54.2576 118.041 49.3483 125.136 46.5515C120.041 60.3284 125.807 62.8902 143.959 69.9851C159.722 76.146 169.344 73.2582 173.7 66.4112Z" fill="black"/>
<path d="M172.498 46.0697C190.32 59.3823 195.379 83.5823 183.393 103.03C173.085 119.755 153.224 128.01 134.369 125.033C141.166 120.986 148.206 114.263 150.584 108.219C156.953 92.0272 151.036 87.0861 136.355 79.7883C136.254 79.738 136.152 79.6899 136.051 79.6405L142.384 69.366C142.898 69.5679 143.422 69.7762 143.958 69.9857C163.484 77.6174 173.591 71.3668 175.932 60.9023C176.838 56.853 175.478 51.3415 172.498 46.0697Z" fill="black"/>
<path d="M145.225 58.4116L135.231 67.6519C119.95 102.592 99.5065 128.151 71.5743 156.981L81.2484 162.213C108.322 137.312 132.781 97.2051 144.905 72.8839L145.225 58.4116Z" fill="black"/>
<path d="M26.5077 66.4131C22.9543 75.5887 23.5881 86.1158 29.2058 95.2303C34.1907 103.318 42.1662 108.778 51.0681 111.097C50.4853 110.129 49.9967 109.166 49.6241 108.219C43.2542 92.0266 49.1717 87.0857 63.8524 79.7879C87.052 68.2555 93.4593 82.8131 94.7138 90.556C94.7333 90.6764 94.7517 90.7975 94.7702 90.9189C98.8233 81.4886 98.3736 70.4712 92.5267 60.9846C88.3808 54.2579 82.1656 49.3485 75.07 46.5518C80.1662 60.3296 74.4007 62.8911 56.2479 69.9862C40.4856 76.1468 30.8635 73.2596 26.5077 66.4131Z" fill="black"/>
<path d="M26.5077 66.4131C22.9543 75.5887 23.5881 86.1158 29.2058 95.2303C34.1907 103.318 42.1662 108.778 51.0681 111.097C50.4853 110.129 49.9967 109.166 49.6241 108.219C43.2542 92.0266 49.1717 87.0857 63.8524 79.7879C87.052 68.2555 93.4593 82.8131 94.7138 90.556C94.7333 90.6764 94.7517 90.7975 94.7702 90.9189C98.8233 81.4886 98.3736 70.4712 92.5267 60.9846C88.3808 54.2579 82.1656 49.3485 75.07 46.5518C80.1662 60.3296 74.4007 62.8911 56.2479 69.9862C40.4856 76.1468 30.8635 73.2596 26.5077 66.4131Z" fill="black"/>
<path d="M27.7073 46.0706C9.88742 59.3834 4.82844 83.5829 16.8147 103.03C27.1234 119.756 46.9854 128.011 65.8405 125.033C59.0436 120.986 52.0021 114.262 49.6241 108.218C43.2545 92.0261 49.172 87.0848 63.8525 79.787C63.9535 79.7368 64.0553 79.6889 64.1557 79.6397L57.8231 69.3651C57.3084 69.5672 56.7842 69.7757 56.248 69.9853C36.723 77.6165 26.6162 71.3656 24.2749 60.9015C23.3693 56.8527 24.7288 51.3417 27.7073 46.0706Z" fill="black"/>
<path d="M110.23 137.118C115.976 143.668 122.098 150.237 128.634 156.982L118.96 162.215C113.704 157.381 108.548 151.973 103.56 146.22C105.813 143.2 108.037 140.164 110.23 137.118ZM64.9774 67.6533C73.6076 87.3863 83.8842 104.127 96.2264 120.154C94.0645 123.042 91.8705 125.916 89.6425 128.778C75.0122 108.996 62.7999 87.9229 55.3036 72.8848L54.9823 58.4131L64.9774 67.6533Z" fill="black"/>
</g>
<defs>
<clipPath id="clip0_1237_10914">
<rect width="200" height="200" fill="white"/>
</clipPath>
</defs>
</svg>
