<svg width="200" height="200" viewBox="0 0 200 200" fill="none" xmlns="http://www.w3.org/2000/svg">
<path d="M109.925 66.7917C122.792 44.0705 151.834 45.9028 151.834 45.9028C181.245 72.2887 182.716 114.799 155.878 146.316C134.409 171.529 95.7094 175.145 79.0435 173.801L75.3672 176L61.3972 170.869C58.8237 168.671 58.8237 162.074 55.1474 158.409C54.4122 157.676 52.574 156.577 50.3682 155.478C48.1624 154.378 40.4422 148.148 36.3982 143.384C32.3543 138.62 27.9429 130.191 25.3694 124.694C23.3107 120.296 24.0215 111.868 24.6342 108.203C25.492 100.263 28.0899 81.8903 31.6192 71.9223C36.0308 59.4622 41.5452 52.8658 43.3834 49.934C45.2215 47.0022 45.2215 44.0705 46.3244 41.5052C47.4273 38.9399 50.0008 35.6416 50.736 35.2752C51.3242 34.982 53.1868 35.153 54.0445 35.2752C53.922 34.5422 53.971 32.7832 55.1474 31.6104C56.618 30.1446 58.8237 30.511 59.9266 30.8775C60.809 31.1707 62.255 30.2667 62.8677 29.7781C64.3382 28.5565 67.5734 25.8202 68.7498 24.6475C69.9262 23.4748 71.4458 24.1589 72.0585 24.6475L81.2493 29.7781C81.2493 29.7781 83.5424 29.7351 84.9256 30.1446C89.0314 31.3601 89.6539 34.9445 91.9106 38.5734C93.4329 41.0214 94.6018 42.3563 95.2193 45.1699C95.9581 48.537 94.484 53.9652 94.484 53.9652C94.484 53.9652 94.4982 60.6306 91.9106 63.4934C88.9924 66.7218 85.1996 64.9539 81.2493 66.7917C77.3877 68.5882 76.0498 71.1672 72.0585 72.6552C67.5884 74.3217 61.7648 72.6552 59.9266 74.1211C58.0885 75.587 65.0494 83.7868 69.4851 89.1464C74.6599 95.3991 80.4674 96.2932 84.9256 103.072C86.6156 105.642 88.6019 110.035 88.6019 110.035C88.6019 110.035 93.6717 105.916 97.425 104.172C101.089 102.469 107.351 101.24 107.351 101.24C107.351 101.24 97.0574 89.5129 109.925 66.7917Z" fill="black"/>
</svg>
