<svg width="200" height="200" viewBox="0 0 200 200" fill="none" xmlns="http://www.w3.org/2000/svg">
<mask id="path-1-outside-1_1237_10869" maskUnits="userSpaceOnUse" x="64.4324" y="118.166" width="62" height="58" fill="black">
<rect fill="white" x="64.4324" y="118.166" width="62" height="58"/>
<path d="M76.6184 140.646H86.7784V150.566H96.3784V160.246H86.7784V170.006H76.6184V160.246H67.0184V150.566H76.6184V140.646ZM108.275 121.126H124.195V174.166H112.515V132.326H108.275V121.126Z"/>
</mask>
<path d="M76.6184 140.646H86.7784V150.566H96.3784V160.246H86.7784V170.006H76.6184V160.246H67.0184V150.566H76.6184V140.646ZM108.275 121.126H124.195V174.166H112.515V132.326H108.275V121.126Z" fill="black"/>
<path d="M76.6184 140.646V138.646H74.6184V140.646H76.6184ZM86.7784 140.646H88.7784V138.646H86.7784V140.646ZM86.7784 150.566H84.7784V152.566H86.7784V150.566ZM96.3784 150.566H98.3784V148.566H96.3784V150.566ZM96.3784 160.246V162.246H98.3784V160.246H96.3784ZM86.7784 160.246V158.246H84.7784V160.246H86.7784ZM86.7784 170.006V172.006H88.7784V170.006H86.7784ZM76.6184 170.006H74.6184V172.006H76.6184V170.006ZM76.6184 160.246H78.6184V158.246H76.6184V160.246ZM67.0184 160.246H65.0184V162.246H67.0184V160.246ZM67.0184 150.566V148.566H65.0184V150.566H67.0184ZM76.6184 150.566V152.566H78.6184V150.566H76.6184ZM76.6184 140.646V142.646H86.7784V140.646V138.646H76.6184V140.646ZM86.7784 140.646H84.7784V150.566H86.7784H88.7784V140.646H86.7784ZM86.7784 150.566V152.566H96.3784V150.566V148.566H86.7784V150.566ZM96.3784 150.566H94.3784V160.246H96.3784H98.3784V150.566H96.3784ZM96.3784 160.246V158.246H86.7784V160.246V162.246H96.3784V160.246ZM86.7784 160.246H84.7784V170.006H86.7784H88.7784V160.246H86.7784ZM86.7784 170.006V168.006H76.6184V170.006V172.006H86.7784V170.006ZM76.6184 170.006H78.6184V160.246H76.6184H74.6184V170.006H76.6184ZM76.6184 160.246V158.246H67.0184V160.246V162.246H76.6184V160.246ZM67.0184 160.246H69.0184V150.566H67.0184H65.0184V160.246H67.0184ZM67.0184 150.566V152.566H76.6184V150.566V148.566H67.0184V150.566ZM76.6184 150.566H78.6184V140.646H76.6184H74.6184V150.566H76.6184ZM108.275 121.126V119.126H106.275V121.126H108.275ZM124.195 121.126H126.195V119.126H124.195V121.126ZM124.195 174.166V176.166H126.195V174.166H124.195ZM112.515 174.166H110.515V176.166H112.515V174.166ZM112.515 132.326H114.515V130.326H112.515V132.326ZM108.275 132.326H106.275V134.326H108.275V132.326ZM108.275 121.126V123.126H124.195V121.126V119.126H108.275V121.126ZM124.195 121.126H122.195V174.166H124.195H126.195V121.126H124.195ZM124.195 174.166V172.166H112.515V174.166V176.166H124.195V174.166ZM112.515 174.166H114.515V132.326H112.515H110.515V174.166H112.515ZM112.515 132.326V130.326H108.275V132.326V134.326H112.515V132.326ZM108.275 132.326H110.275V121.126H108.275H106.275V132.326H108.275Z" fill="black" mask="url(#path-1-outside-1_1237_10869)"/>
<path d="M100.279 29.0001C102.85 28.9909 105.424 29.9671 107.385 31.9288L121.655 46.1973C121.896 46.4386 122.122 46.6896 122.334 46.9483L177.002 101.615C180.907 105.521 180.907 111.853 177.002 115.758L162.733 130.026C158.828 133.932 152.496 133.932 148.591 130.026L107.35 88.786C103.445 84.8807 97.1132 84.8807 93.208 88.786L51.9675 130.026C48.0623 133.932 41.7302 133.932 37.8249 130.026L23.5564 115.758C19.6511 111.853 19.6511 105.521 23.5564 101.615L78.2234 46.9483C78.435 46.6894 78.6616 46.4388 78.9031 46.1973L93.1726 31.9288C95.1343 29.9671 97.7079 28.9909 100.279 29.0001Z" fill="black"/>
</svg>
