<svg width="200" height="200" viewBox="0 0 200 200" fill="none" xmlns="http://www.w3.org/2000/svg">
<path d="M115.228 136.087C115.78 136.087 116.228 136.535 116.228 137.087V147.526H126.666C127.218 147.526 127.666 147.974 127.666 148.526V160.824C127.666 161.376 127.218 161.824 126.666 161.824H116.228V172.263C116.227 172.815 115.78 173.263 115.228 173.263H102.93C102.378 173.263 101.93 172.815 101.93 172.263V161.824H91.4912C90.9389 161.824 90.4912 161.376 90.4912 160.824V148.526C90.4912 147.974 90.9389 147.526 91.4912 147.526H101.93V137.087C101.93 136.535 102.377 136.087 102.93 136.087H115.228ZM159.982 81.7534C161.087 81.7535 161.982 82.6489 161.982 83.7534V101.771H180C181.104 101.771 182 102.667 182 103.771V122.649C182 123.753 181.104 124.649 180 124.649H161.982V142.666C161.982 143.77 161.087 144.665 159.982 144.666H141.105C140.001 144.666 139.105 143.77 139.105 142.666V124.649H121.088C119.983 124.649 119.088 123.753 119.088 122.649V103.771C119.088 102.667 119.983 101.771 121.088 101.771H139.105V83.7534C139.106 82.6489 140.001 81.7534 141.105 81.7534H159.982ZM87.4912 27.4204C89.1481 27.4204 90.4912 28.7636 90.4912 30.4204V58.8765H118.947C120.604 58.8765 121.947 60.2196 121.947 61.8765V95.9116C121.947 97.5685 120.604 98.9116 118.947 98.9116H90.4912V127.368C90.491 129.024 89.1479 130.368 87.4912 130.368H53.4561C51.7993 130.368 50.4562 129.024 50.4561 127.368V98.9116H22C20.3432 98.9116 19 97.5685 19 95.9116V61.8765C19 60.2196 20.3432 58.8765 22 58.8765H50.4561V30.4204C50.4561 28.7636 51.7992 27.4204 53.4561 27.4204H87.4912Z" fill="black"/>
</svg>
