<svg width="200" height="200" viewBox="0 0 200 200" fill="none" xmlns="http://www.w3.org/2000/svg">
<g filter="url(#filter0_f_1237_10880)">
<path d="M86.1091 56.3787C74.5801 69.8295 75.5409 84.2403 75.5409 84.2403C75.5409 84.2403 57.9625 72.4725 46.165 74.6759C29.1968 77.8451 9.24951 98.9861 9.24951 98.9861C9.24951 98.9861 16.0202 80.6747 23.6556 71.0744C34.6471 57.2542 43.879 50.724 60.5711 44.9634C77.8678 38.9942 111.088 43.8891 111.088 43.8891C111.088 43.8891 96.0529 44.7773 86.1091 56.3787Z" fill="url(#paint0_linear_1237_10880)"/>
</g>
<path d="M167.677 96.3378C168.085 108.98 163.209 120.956 153.24 128.603C144.394 135.388 133.194 137.493 122.183 135.427C123.227 134.607 124.161 133.742 124.958 132.833C138.574 117.311 133.815 108.353 120.048 91.9334C98.292 65.985 85.2774 79.5741 80.7978 87.9587C80.7272 88.0909 80.6612 88.2267 80.5913 88.3606C79.716 75.1498 84.5746 62.4999 94.952 54.5401C102.311 48.8954 111.3 46.4887 120.453 47.0285C109.232 60.4118 114.754 66.5003 132.54 84.5484C147.983 100.219 160.034 102.008 167.677 96.3378Z" fill="black"/>
<path d="M167.677 96.3378C168.085 108.98 163.209 120.956 153.24 128.603C144.394 135.388 133.194 137.493 122.183 135.427C123.227 134.607 124.161 133.742 124.958 132.833C138.574 117.311 133.815 108.353 120.048 91.9334C98.292 65.985 85.2774 79.5741 80.7978 87.9587C80.7272 88.0909 80.6612 88.2267 80.5913 88.3606C79.716 75.1498 84.5746 62.4999 94.952 54.5401C102.311 48.8954 111.3 46.4887 120.453 47.0285C109.232 60.4118 114.754 66.5003 132.54 84.5484C147.983 100.219 160.034 102.008 167.677 96.3378Z" fill="black"/>
<path d="M174.346 71.898C189.298 97.0405 185.482 128.066 164.211 144.381C145.919 158.411 120.138 157.405 99.9313 143.798C109.237 142.713 119.876 138.627 124.958 132.833C138.574 117.311 133.812 108.354 120.045 91.9339C119.95 91.821 119.854 91.71 119.76 91.5985L130.998 82.979C131.501 83.4912 132.013 84.0154 132.538 84.5479C151.668 103.96 165.597 102.076 172.383 91.0908C175.009 86.8405 175.643 79.6643 174.346 71.898Z" fill="black"/>
<path d="M138.545 71.6896L123.562 77.1329C92.4389 109.804 59.1657 128.726 16.1075 147.457L25.0126 158.772C65.5461 144.178 109.117 110.391 132.468 88.4481L138.545 71.6896Z" fill="black"/>
<defs>
<filter id="filter0_f_1237_10880" x="1.24951" y="34" width="117.839" height="72.9861" filterUnits="userSpaceOnUse" color-interpolation-filters="sRGB">
<feFlood flood-opacity="0" result="BackgroundImageFix"/>
<feBlend mode="normal" in="SourceGraphic" in2="BackgroundImageFix" result="shape"/>
<feGaussianBlur stdDeviation="4" result="effect1_foregroundBlur_1237_10880"/>
</filter>
<linearGradient id="paint0_linear_1237_10880" x1="111.893" y1="70.1783" x2="9.24951" y2="70.1783" gradientUnits="userSpaceOnUse">
<stop offset="0.543269"/>
<stop offset="1" stop-opacity="0"/>
</linearGradient>
</defs>
</svg>
