<svg width="200" height="200" viewBox="0 0 200 200" fill="none" xmlns="http://www.w3.org/2000/svg">
<path d="M115.381 46.6045L121.065 37.5098C121.823 39.215 123.453 42.5114 123.907 42.0566C124.364 41.6 132.055 34.6678 135.844 31.2578L142.664 52.8564L152.327 50.583L150.054 60.8145L166.537 62.5195L163.695 73.8877L187 77.8662L163.127 90.3711L172.79 99.4658L161.99 107.992L164.832 120.497L154.601 121.634L156.307 130.159L147.212 126.749L147.78 154.032L129.022 138.117L123.339 147.78L115.381 142.664L106.855 160.854L96.624 146.075V156.875L79.0029 153.464L77.2979 187L65.9297 169.38L59.1094 180.748L50.583 171.653L40.3516 175.063L34.0996 160.285L12.5 165.4L19.8896 153.464L12.5 146.644L19.3213 139.254L15.3418 132.434L19.8896 124.476L14.2051 110.834L23.2998 110.266L14.7734 90.9395L34.0996 100.603L35.8047 92.6445L44.3311 96.0557L54.5615 81.2773L68.7725 76.7295L65.9297 71.6143L72.751 71.0459L63.6562 52.8564L82.4141 56.8359V50.0146L87.5293 52.2881L93.2129 12.5L115.381 46.6045ZM40.9199 111.971L34.0996 111.402L34.668 118.223L26.71 127.886L30.6885 140.391L26.71 146.644C28.5236 147.212 32.197 148.347 32.3936 148.349C32.583 148.352 30.5784 152.896 29.5518 155.169L38.6465 150.054L44.3301 159.717L57.9727 156.306L71.6143 157.443L69.9082 148.349L81.2764 142.096L74.4561 131.296L79.5713 125.044L72.1826 123.907L73.3193 116.518L62.5195 113.676L52.2881 105.718L40.9199 111.971ZM93.2139 68.7715L77.8672 65.3613L84.1191 77.8662L75.5928 77.2979L79.5723 83.5498L68.2041 86.3926L80.709 95.4863L73.8877 100.034L86.9609 101.171L85.8242 105.149L110.266 100.603L94.9189 130.159L113.676 127.317L121.634 131.864L123.907 125.612L137.549 131.296L134.707 118.223L142.665 118.791L143.233 113.676L152.328 111.971L150.054 89.8027L164.833 80.1396L145.507 79.0029L152.896 71.0449L135.844 66.498L130.729 52.8564L113.676 58.54L97.7607 42.0566L93.2139 68.7715Z" fill="black"/>
</svg>
