<svg width="200" height="200" viewBox="0 0 200 200" fill="none" xmlns="http://www.w3.org/2000/svg">
<path d="M125.773 57.2427L111.289 49.0249L113.922 54.5034C113.922 54.5034 114.499 55.7382 114.252 56.46C113.899 57.4905 111.947 57.2427 111.947 57.2427L71.7863 59.1993C71.7863 59.1993 68.6474 59.0893 67.8361 60.7645C67.3825 61.701 67.5069 63.5038 67.5069 63.5038L91.2085 96.3748C91.2085 96.3748 91.8549 99.4056 91.2085 101.071C90.5185 102.848 87.9166 104.201 87.9166 104.201L21.4205 117.506C21.4205 117.506 19.6742 118.389 19.7746 119.463C19.8655 120.435 21.4205 121.028 21.4205 121.028L165.605 149.594C165.605 149.594 168.425 150.563 169.884 149.594C170.919 148.908 171.86 146.855 171.86 146.855L180.748 88.9397C180.748 88.9397 180.959 86.3746 180.089 85.4178C179.051 84.2761 176.468 85.4178 176.468 85.4178L147.829 92.0703C147.829 92.0703 144.766 92.6077 142.891 92.0703C141.381 91.6374 139.27 90.1136 139.27 90.1136L108.326 67.417C108.326 67.417 107.29 66.3496 107.339 65.4604C107.418 64.0137 110.301 64.2864 110.301 64.2864L125.773 63.5038C125.773 63.5038 128.392 62.7575 128.736 61.1559C129.164 59.1638 125.773 57.2427 125.773 57.2427Z" fill="black"/>
</svg>
