<svg width="200" height="200" viewBox="0 0 200 200" fill="none" xmlns="http://www.w3.org/2000/svg">
<path d="M58.8181 58.9949L72.3422 68.0523L88.1208 64.1354L83.7268 79.8579L92.3101 93.7256L76.0703 94.3851L65.5966 106.873L59.9539 91.5578L44.8974 85.4079L57.6498 75.2832L58.8181 58.9949Z" fill="black"/>
<path d="M137.089 94.6514L144.287 102.643L155.014 102.697L149.675 112.046L152.938 122.313L142.439 120.099L133.729 126.39L132.58 115.674L123.934 109.294L133.723 104.885L137.089 94.6514Z" fill="black"/>
<path d="M57.1028 94.3336L58.6571 98.5533C46.5866 112.397 41.54 126.156 46.9607 134.505C55.3766 147.465 85.8348 142.478 114.991 123.364C118.997 120.738 122.769 117.98 126.276 115.145L129.448 117.485L129.883 121.541C126.4 124.223 122.727 126.838 118.883 129.358C82.2801 153.354 44.0417 159.616 33.4762 143.345C25.9568 131.765 34.4803 111.891 53.215 92.7453L57.1028 94.3336Z" fill="black"/>
<path d="M92.0624 63.5294C124.88 45.3808 156.562 41.8699 166.029 56.4487C172.545 66.4837 167.014 82.7451 153.231 99.3652L145.761 99.3274L144.021 97.3951C153.764 84.8905 157.463 72.8626 152.545 65.2882C144.588 53.035 116.93 56.8268 89.2961 73.4291L92.0624 63.5294Z" fill="black"/>
</svg>
